<?xml version="1.0" encoding="UTF-8"?>
<!DOCTYPE svg PUBLIC "-//W3C//DTD SVG 1.1//EN" "http://www.w3.org/Graphics/SVG/1.1/DTD/svg11.dtd">
<!-- Creator: CorelDRAW -->
<svg xmlns="http://www.w3.org/2000/svg" xml:space="preserve" width="241mm" height="64mm" version="1.1" style="shape-rendering:geometricPrecision; text-rendering:geometricPrecision; image-rendering:optimizeQuality; fill-rule:evenodd; clip-rule:evenodd"
viewBox="0 0 24100 6400"
 xmlns:xlink="http://www.w3.org/1999/xlink"
 xmlns:xodm="http://www.corel.com/coreldraw/odm/2003">
 <defs>
  <style type="text/css">
   <![CDATA[
    .str0 {stroke:#6B809B;stroke-width:50;stroke-miterlimit:22.9256}
    .fil3 {fill:none}
    .fil7 {fill:#FEFEFE}
    .fil4 {fill:#E6E7E8}
    .fil0 {fill:#6B809B}
    .fil5 {fill:#6B809B}
    .fil6 {fill:#FEFEFE}
    .fil8 {fill:white}
    .fil1 {fill:white;fill-rule:nonzero}
    .fil2 {fill:url(#id0);fill-rule:nonzero}
   ]]>
  </style>
  <linearGradient id="id0" gradientUnits="userSpaceOnUse" x1="34.54" y1="3894.5" x2="17744.72" y2="3860.8">
   <stop offset="0" style="stop-opacity:1; stop-color:#6366F1"/>
   <stop offset="1" style="stop-opacity:1; stop-color:#8B5CF6"/>
  </linearGradient>
 </defs>
 <g id="Camada_x0020_1">
  <metadata id="CorelCorpID_0Corel-Layer"/>
  <rect class="fil0" x="-313190.16" y="60238.55" width="78819.59" height="55731.02"/>
  <polygon class="fil1" points="-266008.91,90819.74 -267623.94,88881.56 -267423.98,90819.74 -268847.31,90819.74 -268342.59,84660.24 -267996.73,84660.24 -267693.55,88054.38 -266017.27,86175.19 -264260.96,86175.19 -266192.06,88505.82 -264244.35,90819.74 "/>
  <path class="fil1" d="M-270859.19 86125.25c543.85,0 978.09,176.17 1302.71,528.52 324.62,352.34 486.93,836.51 486.93,1452.52l0 2713.45 -1415.08 0 0 -2522.04c0,-310.76 -80.41,-552.11 -241.35,-724.15 -160.93,-172.04 -377.31,-258.06 -649.23,-258.06 -271.93,0 -488.31,86.02 -649.24,258.06 -160.93,172.04 -241.45,413.39 -241.45,724.15l0 2522.04 -1423.33 0 0 -4644.55 1423.33 0 0 615.91c144.32,-205.27 338.58,-367.58 582.68,-486.92 244.2,-119.25 518.88,-178.93 824.03,-178.93z"/>
  <path class="fil1" d="M-276338.89 90886.3c-455.08,0 -864.25,-97.04 -1227.8,-291.3 -363.45,-194.26 -649.23,-471.69 -857.26,-832.39 -208.12,-360.69 -312.13,-782.34 -312.13,-1265.14 0,-477.2 105.39,-897.57 316.26,-1261.02 210.88,-363.45 499.42,-642.36 865.62,-836.52 366.3,-194.26 776.94,-291.39 1231.92,-291.39 455.08,0 865.62,97.13 1231.92,291.39 366.2,194.16 654.74,473.07 865.62,836.52 210.87,363.45 316.36,783.82 316.36,1261.02 0,477.19 -106.87,897.56 -320.49,1261.02 -213.63,363.45 -505.02,642.25 -873.98,836.51 -369.05,194.26 -781.07,291.3 -1236.04,291.3zm0 -1231.83c271.92,0 503.54,-99.88 694.95,-299.64 191.5,-199.77 287.16,-485.56 287.16,-857.36 0,-371.81 -92.9,-657.6 -278.81,-857.36 -185.9,-199.77 -414.77,-299.65 -686.69,-299.65 -277.43,0 -507.77,98.51 -690.82,295.52 -183.15,197.01 -274.68,484.17 -274.68,861.49 0,371.8 90.15,657.59 270.45,857.36 180.4,199.76 406.51,299.64 678.44,299.64z"/>
  <path class="fil1" d="M-278855.62 89612.79l0 1206.95 -724.15 0c-516.13,0 -918.41,-126.23 -1206.95,-378.69 -288.54,-252.56 -432.86,-664.57 -432.86,-1236.05l0 -1847.83 -565.97 0 0 -1181.98 565.97 0 0 -1132.03 1423.33 0 0 1132.03 932.27 0 0 1181.98 -932.27 0 0 1864.45c0,138.71 33.32,238.59 99.88,299.64 66.65,61.05 177.65,91.53 332.98,91.53l507.77 0z"/>
  <path class="fil1" d="M-283811.12 90886.3c-405.14,0 -765.84,-69.31 -1082.1,-208.03 -316.26,-138.71 -565.97,-328.84 -749.12,-570.19 -183.15,-241.35 -285.79,-511.9 -308.01,-811.55l1406.72 0c16.61,160.93 91.53,291.29 224.74,391.17 133.2,99.89 296.89,149.83 491.05,149.83 177.65,0 314.99,-34.61 412.02,-104.01 97.13,-69.41 145.69,-159.56 145.69,-270.55 0,-133.11 -69.3,-231.62 -208.12,-295.42 -138.71,-63.91 -363.45,-134.59 -674.21,-212.25 -332.87,-77.77 -610.3,-159.56 -832.29,-245.58 -221.98,-86.02 -413.39,-221.99 -574.32,-407.89 -160.94,-185.9 -241.45,-436.99 -241.45,-753.25 0,-266.32 73.53,-509.15 220.61,-728.28 147.07,-219.23 363.45,-392.65 649.23,-520.25 285.79,-127.61 625.65,-191.51 1019.67,-191.51 582.59,0 1041.79,144.32 1377.52,432.86 335.73,288.54 528.61,671.45 578.55,1148.65l-1315.19 0c-22.21,-160.93 -92.9,-288.54 -212.25,-382.82 -119.25,-94.38 -276.05,-141.57 -470.31,-141.57 -166.44,0 -294.05,31.95 -382.82,95.76 -88.77,63.8 -133.21,151.2 -133.21,262.19 0,133.21 70.78,233.09 212.25,299.65 141.47,66.55 362.08,133.21 661.72,199.76 344.09,88.78 624.27,176.17 840.65,262.2 216.48,86.02 406.51,224.73 570.2,416.14 163.68,191.51 248.33,448.1 253.93,769.96 0,271.93 -76.38,514.65 -228.96,728.28 -152.58,213.63 -371.81,381.54 -657.6,503.64 -285.68,122.01 -617.28,183.06 -994.59,183.06z"/>
  <polygon class="fil1" points="-263950.5,89648.28 -261936.19,89648.28 -261936.19,90821.9 -264165.8,90821.9 -265337.19,89443.88 -263609.23,87350.97 -265171.15,87350.97 -264193.57,86177.34 -264193.57,86177.34 -261977.81,86177.34 -261977.81,87309.35 "/>
  <path class="fil2" d="M2173.77 6283.38c-405.14,0 -765.84,-69.31 -1082.1,-208.03 -316.26,-138.71 -565.97,-328.84 -749.12,-570.19 -183.15,-241.35 -285.79,-511.9 -308.01,-811.55l1406.72 0c16.61,160.93 91.53,291.29 224.74,391.17 133.2,99.89 296.89,149.83 491.05,149.83 177.65,0 314.99,-34.61 412.02,-104.01 97.13,-69.41 145.69,-159.56 145.69,-270.55 0,-133.11 -69.3,-231.62 -208.12,-295.42 -138.71,-63.91 -363.45,-134.59 -674.21,-212.25 -332.87,-77.77 -610.3,-159.56 -832.29,-245.58 -221.98,-86.02 -413.39,-221.99 -574.32,-407.89 -160.94,-185.9 -241.45,-436.99 -241.45,-753.25 0,-266.32 73.53,-509.15 220.61,-728.28 147.07,-219.23 363.45,-392.65 649.23,-520.25 285.79,-127.61 625.65,-191.51 1019.67,-191.51 582.59,0 1041.79,144.32 1377.52,432.86 335.73,288.54 528.61,671.45 578.55,1148.65l-1315.19 0c-22.21,-160.93 -92.9,-288.54 -212.25,-382.82 -119.25,-94.38 -276.05,-141.57 -470.31,-141.57 -166.44,0 -294.05,31.95 -382.82,95.76 -88.77,63.8 -133.21,151.2 -133.21,262.19 0,133.21 70.78,233.09 212.25,299.65 141.47,66.55 362.08,133.21 661.72,199.76 344.09,88.78 624.27,176.17 840.65,262.2 216.48,86.02 406.51,224.73 570.2,416.14 163.68,191.51 248.33,448.1 253.93,769.96 0,271.93 -76.38,514.65 -228.96,728.28 -152.58,213.63 -371.81,381.54 -657.6,503.64 -285.68,122.01 -617.28,183.06 -994.59,183.06zm19860.62 -1238.02l2014.31 0 0 1173.62 -2229.61 0 -1171.39 -1378.02 1727.96 -2092.91 -1561.92 0 977.58 -1173.63 2215.76 0 0 1132.01 -1972.69 2338.93zm-2058.41 1171.46l-1415.07 -1947.71 0 1947.71 -1423.33 0 0 -6159.5 1423.33 0 0 3404.37 1406.71 -1889.42 1756.31 0 -1931.1 2330.63 1947.71 2313.92 -1764.56 0zm-4850.28 -4694.49c543.85,0 978.09,176.17 1302.71,528.52 324.62,352.34 486.93,836.51 486.93,1452.52l0 2713.45 -1415.08 0 0 -2522.04c0,-310.76 -80.41,-552.11 -241.35,-724.15 -160.93,-172.04 -377.31,-258.06 -649.23,-258.06 -271.93,0 -488.31,86.02 -649.24,258.06 -160.93,172.04 -241.45,413.39 -241.45,724.15l0 2522.04 -1423.33 0 0 -4644.55 1423.33 0 0 615.91c144.32,-205.27 338.58,-367.58 582.68,-486.92 244.2,-119.25 518.88,-178.93 824.03,-178.93zm-5479.7 4761.05c-455.08,0 -864.25,-97.04 -1227.8,-291.3 -363.45,-194.26 -649.23,-471.69 -857.26,-832.39 -208.12,-360.69 -312.13,-782.34 -312.13,-1265.14 0,-477.2 105.39,-897.57 316.26,-1261.02 210.88,-363.45 499.42,-642.36 865.62,-836.52 366.3,-194.26 776.94,-291.39 1231.92,-291.39 455.08,0 865.62,97.13 1231.92,291.39 366.2,194.16 654.74,473.07 865.62,836.52 210.87,363.45 316.36,783.82 316.36,1261.02 0,477.19 -106.87,897.56 -320.49,1261.02 -213.63,363.45 -505.02,642.25 -873.98,836.51 -369.05,194.26 -781.07,291.3 -1236.04,291.3zm0 -1231.83c271.92,0 503.54,-99.88 694.95,-299.64 191.5,-199.77 287.16,-485.56 287.16,-857.36 0,-371.81 -92.9,-657.6 -278.81,-857.36 -185.9,-199.77 -414.77,-299.65 -686.69,-299.65 -277.43,0 -507.77,98.51 -690.82,295.52 -183.15,197.01 -274.68,484.17 -274.68,861.49 0,371.8 90.15,657.59 270.45,857.36 180.4,199.76 406.51,299.64 678.44,299.64zm-2516.73 -41.68l0 1206.95 -724.15 0c-516.13,0 -918.41,-126.23 -1206.95,-378.69 -288.54,-252.56 -432.86,-664.57 -432.86,-1236.05l0 -1847.83 -565.97 0 0 -1181.98 565.97 0 0 -1132.03 1423.33 0 0 1132.03 932.27 0 0 1181.98 -932.27 0 0 1864.45c0,138.71 33.32,238.59 99.88,299.64 66.65,61.05 177.65,91.53 332.98,91.53l507.77 0z"/>
  <path class="fil3 str0" d="M-264204.69 86149.53c-1027.08,1239.59 -1027.08,1239.59 -1027.08,1239.59"/>
  <path class="fil3 str0" d="M-90983.4 143247.32c-1027.08,1239.59 -1027.08,1239.59 -1027.08,1239.59"/>
  <path class="fil3 str0" d="M-133795.13 143065.79c-1027.08,1239.59 -1027.08,1239.59 -1027.08,1239.59"/>
  <rect class="fil4" x="-75365.85" y="121049.54" width="36124.44" height="36124.44"/>
  <rect class="fil4" x="-118850.69" y="121354.14" width="36124.44" height="36124.44"/>
  <rect class="fil4" x="-161524.84" y="121172.61" width="36124.44" height="36124.44"/>
  <rect class="fil5" x="-66614.19" y="130423.45" width="18621.12" height="18621.12" rx="3293.95" ry="3293.95"/>
  <rect class="fil5" x="-110099.03" y="130728.05" width="18621.12" height="18621.12" rx="3293.95" ry="3293.95"/>
  <rect class="fil5" x="-152910.76" y="130546.52" width="18621.12" height="18621.12" rx="3293.95" ry="3293.95"/>
  <image x="-38049.74" y="119169.6" width="36124.44" height="36124.44" xlink:href="logo-stonkz_Images\logo-stonkz_ImgID1.png"/>
  <path class="fil6" d="M-24757.8 138452.79c-343.53,111.42 -899.78,1442.88 -1218,1958.38 -100.1,162.15 -173.36,316.12 -278.5,496.4 -89.94,154.21 -202.28,363.41 -282.16,531.32 -87.65,184.26 -475.31,683.45 -146.14,706.76 109.66,7.77 657.25,-488.69 764.07,-579.64l1314.16 -1086.91c26.88,-24.22 30.7,-27.72 55.31,-48.24 32.48,-27.07 25.64,-17.11 57.14,-45.16 234.03,-208.46 197.33,-622.11 215.98,-972.37 8.72,-163.72 52.63,-573.91 21.58,-708.75 -41.81,-181.59 -269.01,-327.83 -503.44,-251.79z"/>
  <g id="_2383799210064">
   <path class="fil5" d="M-56098.06 135350.86c-1039.92,232.9 -735.43,1886.25 339.55,1643.42 1072.49,-242.26 737.42,-1884.63 -339.55,-1643.42z"/>
   <path class="fil7" d="M-59076.11 139181.02c0,583.39 58.66,1043.71 197.63,1583.07 72.77,282.45 305.66,1002.24 456.1,1187.43l2216.41 5.34c358.59,-511.02 646.06,-1866.05 652.53,-2670.01 11.41,-1419.06 -277.94,-1734.48 -595.07,-2774.42 -357.78,0.36 -747.07,111.81 -1180.26,111.42 -459.57,-0.41 -739.11,-93.12 -1134.58,-124.78 -361.11,818.21 -612.76,1652.44 -612.76,2681.95zm1559.16 -868.45c-920.71,260.27 -463.33,1673.95 447.15,1341.44 817.31,-298.49 465.87,-1599.54 -447.15,-1341.44z"/>
   <path class="fil7" d="M-55559.2 141086.02c144.38,160.2 1126.03,1107.98 1250.58,1117.79 46.9,-417.74 44.88,-1749.02 6.44,-2176.96 -28.77,-320.36 -925.39,-1212.19 -990.19,-1239.58 8.59,439.5 8.66,806.86 -40.04,1239.98 -41.33,367.46 -166.03,721.08 -226.79,1058.77z"/>
   <path class="fil7" d="M-60333.9 140168.8l6.39 2041.28c199.96,-26.08 924.12,-870.04 1247.47,-1077.68 -8.86,-365.72 -269.14,-856.49 -264.98,-1916.1l8.7 -434.42c-122.75,59.52 -467.36,486.08 -572.77,606.12 -196.8,224.14 -424.8,370.2 -424.81,780.8z"/>
   <path class="fil7" d="M-58314.26 136217.68c200.17,150.84 692.02,138.57 985.55,139.51 189.7,0.61 346.24,-10.61 527.79,-30.35l477.68 -109.16c-83.74,-228.48 -607.57,-1144.74 -1005.7,-1138.98 -371.82,5.38 -850.68,852.13 -985.32,1138.98z"/>
   <path class="fil7" d="M-58172.11 142638.1l1701.8 6.1 -17.32 -413.33c-330.19,-25.53 -725.05,-5.81 -1052.81,-5.84 -517.39,-0.04 -670.06,-145.72 -631.67,413.07z"/>
   <rect class="fil7" x="-58254.63" y="143005.27" width="154.65" height="1854.97" rx="77.32" ry="165.34"/>
   <rect class="fil7" x="-56552.15" y="142990.32" width="154.65" height="1854.97" rx="77.32" ry="165.34"/>
   <rect class="fil7" x="-57387.71" y="143177.38" width="154.65" height="2536.74" rx="77.32" ry="226.1"/>
   <rect class="fil7" x="-58408.81" y="143234.94" width="463" height="1175.05"/>
   <rect class="fil7" x="-56706.33" y="143219.99" width="463" height="1175.05"/>
   <rect class="fil7" x="-57541.89" y="143407.05" width="463" height="1175.05"/>
  </g>
  <path class="fil8" d="M-269850.16 82521.98c252.04,27.73 393.4,-363.08 853.06,-296.08l232.67 504.63 1111.46 1.52c193.56,-296.99 125.52,-742.02 703.44,-418.19 120.82,67.7 260.15,225.44 371.57,178.48 177.56,-91.71 98.62,-871.11 26.49,-1063.36 -72.14,-192.29 -222.07,-455.35 -422.67,-533.09 -60.93,69.31 -59.19,101.17 -84.83,188.72 -22.89,78.18 -40.58,135.04 -94.37,191.13 -6.18,-938.52 144.56,-1105.58 -179.7,-2159.29 -128.01,-415.99 -324.6,-866.86 -580.28,-1225.48 -98.23,-137.79 -160.38,-272.36 -371.44,-229.26 -303.09,61.89 -773.31,1252.69 -850.1,1562.16 -74.44,300.05 -172.84,699.66 -181.6,1018.74 -5.09,185.71 66.38,1093.15 56.33,1117.02l-175.69 -488.7c-56.41,21.11 -63.66,32.62 -107.14,66.76 -356.41,279.9 -538.38,1213.06 -307.2,1584.29zm1638.54 -2690.22c199.39,0 361.02,161.63 361.02,361.02 0,199.39 -161.63,361.02 -361.02,361.02 -199.39,0 -361.02,-161.63 -361.02,-361.02 0,-199.39 161.63,-361.02 361.02,-361.02z"/>
  <g id="_2383799207184">
   <rect class="fil7" x="-101754.41" y="142858.69" width="154.65" height="1854.97" rx="77.32" ry="165.34"/>
   <rect class="fil7" x="-100051.93" y="142843.74" width="154.65" height="1854.97" rx="77.32" ry="165.34"/>
   <rect class="fil7" x="-100887.49" y="143030.8" width="154.65" height="2536.74" rx="77.32" ry="226.1"/>
   <rect class="fil7" x="-101908.59" y="143088.36" width="463" height="1175.05"/>
   <rect class="fil7" x="-100206.11" y="143073.41" width="463" height="1175.05"/>
   <rect class="fil7" x="-101041.67" y="143260.47" width="463" height="1175.05"/>
   <path class="fil8" d="M-103566.18 141921.13c427.27,47.01 666.91,-615.5 1446.14,-501.92l394.43 855.46 1884.18 2.58c328.13,-503.47 212.79,-1257.9 1192.5,-708.93 204.82,114.77 441.01,382.17 629.9,302.57 301,-155.47 167.18,-1476.74 44.9,-1802.65 -122.29,-325.98 -376.46,-771.92 -716.52,-903.71 -103.29,117.5 -100.34,171.51 -143.81,319.92 -38.8,132.54 -68.79,228.93 -159.98,324.01 -10.47,-1591.01 245.07,-1874.21 -304.63,-3660.5 -217.01,-705.2 -550.27,-1469.53 -983.71,-2077.47 -166.52,-233.59 -271.88,-461.72 -629.68,-388.65 -513.81,104.92 -1310.94,2123.6 -1441.12,2648.22 -126.19,508.66 -293,1186.09 -307.85,1727.01 -8.63,314.82 112.53,1853.14 95.49,1893.61l-297.84 -828.46c-95.62,35.78 -107.91,55.29 -181.62,113.17 -604.2,474.5 -912.68,2056.42 -520.78,2685.74zm2777.71 -4560.55c338.01,0 612.01,274 612.01,612.01 0,338.02 -274,612.02 -612.01,612.02 -338.01,0 -612.01,-274 -612.01,-612.02 0,-338.01 274,-612.01 612.01,-612.01z"/>
  </g>
  <path class="fil7" d="M-268776.05 90775.79l1286.38 10.01c19.43,-242.43 -122.11,-1716.25 -148.08,-2077.73 -82.32,-1145.42 -239.19,-3197.3 -256.75,-4171.72 -69.21,-665.56 89.59,-355.41 195.5,-787.04 112.59,-646.84 -1072.88,-782.1 -1021.88,12.5 182.85,575.29 187.27,112.57 151.77,741.24l-129.46 5254.58c-27.66,305.73 -97.69,692.28 -77.48,1018.16z"/>
  <path class="fil7" d="M-148783.17 141219.77c-113.67,32.83 -173.59,50.54 -295.9,91.95 -194.5,65.83 -143.36,47.12 -285.16,193.18l2332.08 1400.59c179.14,64.45 170.56,-32.18 438.89,-537.7 152.48,-287.27 255.95,-552.73 453.3,-879.08l76.96 -144.99c3.31,204.49 -443.27,1449.59 -514.24,1830.63 -157.81,847.39 1247.09,1909.85 2326.13,1762.41 367.74,-50.25 645.43,-456.22 1087.37,-877 151.16,-143.91 575.51,-538.74 667.74,-675.01 -9.37,132.54 -380.47,611.6 -498.85,758.62l-518.57 801.27c-37.52,119.92 2040.8,1287.63 2460.77,1534.86 55.27,-171.57 -91.97,-704.58 -124.77,-913.7 -164.23,-1047.06 -500.95,-2441.73 -693.04,-3572.71l-353.11 -1784.41c-64.75,-285.47 -99.69,-727.77 -208.53,-915.82 -226.93,-10.5 -1156.28,337.68 -1431.39,412.88 -1238.89,338.7 -2653.55,826.37 -3913.41,1204.83 -608.05,182.65 -8.14,20.83 -1006.27,309.2z"/>
  <path class="fil7" d="M-145527.89 139923.01c177.41,-18.9 1853.13,-562.3 2193.04,-662.96 149.84,-44.36 632.12,-160.4 714.23,-265.48 -249.65,-345.06 -426,-329.04 -573.25,-1056.85 -249.04,-1230.93 1199.38,-2635.19 2661.68,-1752.81 1474.48,889.73 854.65,3219.35 -913.4,3237.88 -291.07,3.06 -372.27,-58 -642.3,-102.84 -53.53,137.46 351.21,1939.82 405.84,2255.82 37.63,217.63 88.94,581.85 157.47,743.15 273.72,-117.38 2159.03,-2432.14 2475.11,-2960 503.09,-840.13 630,-1599.76 699.06,-2486.68 14.02,-180.15 30.42,-621.06 6.54,-790.3 -147.02,-60.73 -275.72,-50.54 -436.23,-73.95 -1983.89,-289.42 -2506.4,-1657.08 -2755.79,-1835.65 -909.02,439.12 -1918.67,1093.19 -2591.38,2227.05 -257.81,434.54 -1424.29,3256.06 -1400.62,3523.62z"/>
  <path class="fil7" d="M-141235.5 134071.09c78.91,214.51 295.15,433.98 460.49,624.4 514.44,592.49 1719.31,1148.1 2379.54,1075.39 117.11,-271.88 -357.5,-2328.26 -487.61,-2409 -144.66,-89.75 -2153.19,487.76 -2352.42,709.21z"/>
  <path class="fil7" d="M-144413.79 145246.83c-320.69,-134.4 -456.64,100.96 -1358.03,-439.77 -740.87,-444.42 -651.2,-624.94 -973.17,-960.08 -145.55,348.8 -156.9,508.56 3.31,824.95 358.15,707.31 1756.53,1426.68 2327.89,574.9z"/>
  <path class="fil1" d="M-141404.22 139000.53c-222.5,0 -420.6,-38.06 -594.29,-114.24 -173.69,-76.18 -310.83,-180.6 -411.41,-313.15 -100.59,-132.55 -156.96,-281.14 -169.16,-445.7l772.57 0c9.12,88.38 50.26,159.97 123.42,214.83 73.16,54.85 163.05,82.28 269.69,82.28 97.56,0 172.99,-19 226.28,-57.12 53.34,-38.12 80.01,-87.63 80.01,-148.58 0,-73.11 -38.06,-127.21 -114.3,-162.25 -76.18,-35.09 -199.61,-73.91 -370.27,-116.57 -182.82,-42.7 -335.18,-87.62 -457.09,-134.87 -121.92,-47.24 -227.04,-121.91 -315.42,-224.01 -88.39,-102.1 -132.6,-239.99 -132.6,-413.68 0,-146.26 40.38,-279.62 121.15,-399.97 80.77,-120.4 199.61,-215.64 356.56,-285.72 156.95,-70.08 343.6,-105.18 560,-105.18 319.95,0 572.15,79.26 756.53,237.73 184.38,158.46 290.31,368.76 317.74,630.83l-722.3 0c-12.2,-88.38 -51.02,-158.46 -116.57,-210.24 -65.49,-51.83 -151.6,-77.75 -258.29,-77.75 -91.41,0 -161.49,17.55 -210.24,52.59 -48.76,35.04 -73.16,83.04 -73.16,144 0,73.16 38.87,128.01 116.56,164.56 77.7,36.55 198.85,73.16 363.42,109.71 188.97,48.76 342.85,96.76 461.68,144 118.89,47.24 223.26,123.42 313.15,228.54 89.9,105.18 136.38,246.1 139.46,422.86 0,149.34 -41.95,282.65 -125.74,399.97 -83.8,117.33 -204.2,209.54 -361.15,276.6 -156.9,67 -339.02,100.53 -546.23,100.53z"/>
 </g>
</svg>
